<?xml version="1.0" standalone="no"?>
<!DOCTYPE svg PUBLIC "-//W3C//DTD SVG 20010904//EN"
 "http://www.w3.org/TR/2001/REC-SVG-20010904/DTD/svg10.dtd">
<svg version="1.0" xmlns="http://www.w3.org/2000/svg"
 width="152.000000pt" height="152.000000pt" viewBox="0 0 152.000000 152.000000"
 preserveAspectRatio="xMidYMid meet">
<metadata>
Created by potrace 1.11, written by Peter Selinger 2001-2013
</metadata>
<g transform="translate(0.000000,152.000000) scale(0.100000,-0.100000)"
fill="#000000" stroke="none">
<path d="M670 1407 c-95 -11 -180 -39 -245 -83 -67 -44 -85 -64 -87 -100 0
-16 -14 -57 -30 -91 -16 -34 -33 -88 -39 -120 -10 -52 -8 -163 5 -220 4 -17
-3 -27 -29 -43 -53 -33 -112 -106 -136 -169 -25 -65 -30 -174 -9 -236 45 -139
177 -240 322 -249 95 -6 93 -11 73 264 -3 41 -8 104 -10 140 -13 201 -17 251
-19 264 -4 29 -29 46 -62 44 -18 -1 -36 0 -39 3 -8 9 -9 150 -2 194 10 51 54
148 65 141 5 -3 31 12 59 33 76 57 146 76 283 75 136 0 207 -18 273 -68 24
-19 53 -37 65 -40 43 -14 83 -146 76 -258 -2 -39 -6 -74 -9 -77 -3 -3 -21 -4
-40 -3 -51 4 -62 -21 -70 -168 -4 -69 -8 -143 -10 -165 -2 -22 -6 -85 -10
-140 -3 -55 -8 -125 -10 -155 -6 -75 8 -88 83 -84 192 11 333 160 336 354 1
130 -63 249 -167 306 -15 8 -25 19 -22 24 5 8 17 129 17 165 -1 54 -41 193
-65 223 -5 7 -11 29 -13 50 -2 29 -11 45 -43 73 -108 96 -289 139 -491 116z"/>
<path d="M516 764 c-14 -13 -15 -32 -10 -112 3 -54 7 -122 9 -152 2 -30 6 -89
9 -130 4 -41 9 -106 11 -145 3 -55 8 -73 24 -86 25 -21 58 -14 66 12 6 18 0
167 -10 269 -5 44 -15 199 -19 289 -3 62 -45 91 -80 55z"/>
<path d="M967 768 c-17 -13 -20 -33 -32 -223 -4 -55 -8 -125 -11 -155 -11
-138 -14 -225 -9 -242 5 -13 16 -18 40 -18 47 0 47 2 60 220 4 63 8 131 10
150 2 19 6 85 10 147 6 105 5 112 -14 122 -25 14 -33 14 -54 -1z"/>
</g>
</svg>
